/* XPM */
static char *fdf3fa3369a245eeccb4bd2c6740b8f98UgEozmL2tB0fj9k[] = {
/* columns rows colors chars-per-pixel */
"32 32 4 1 ",
"  c #573726",
". c #CEA33E",
"X c #986A20",
"o c #B58411",
/* pixels */
" ...... Xoooooo ....... XooooooX",
" ...... Xoooooo ....... XooooooX",
" ...... Xoooooo ....... XooooooX",
" ...... Xoooooo ....... XooooooX",
" ...... Xoooooo ....... XooooooX",
" ...... Xoooooo ....... XooooooX",
" ...... Xoooooo ....... XooooooX",
" ...... Xoooooo ....... XooooooX",
" ...... Xoooooo ....... XooooooX",
" ...... Xoooooo ....... XooooooX",
" ...... Xoooooo ....... XooooooX",
" ...... Xoooooo ....... XooooooX",
" ...... Xoooooo ....... XooooooX",
" ...... Xoooooo ....... XooooooX",
" ...... Xoooooo ....... XooooooX",
" ...... Xoooooo ....... XooooooX",
" ...... Xoooooo ....... XooooooX",
" ...... Xoooooo ....... XooooooX",
" ...... Xoooooo ....... XooooooX",
" ...... Xoooooo ....... XooooooX",
" ...... Xoooooo ....... XooooooX",
" ...... Xoooooo ....... XooooooX",
" ...... Xoooooo ....... XooooooX",
" ...... Xoooooo ....... XooooooX",
" ...... Xoooooo ....... XooooooX",
" ...... Xoooooo ....... XooooooX",
" ...... Xoooooo ....... XooooooX",
" ...... Xoooooo ....... XooooooX",
" ...... Xoooooo ....... XooooooX",
" ...... Xoooooo ....... XooooooX",
" ...... Xoooooo ....... XooooooX",
" ...... Xoooooo ....... XooooooX"
};
