/* XPM */
static char *fdf3fa3369a245eeccb4bd2c6740b8f98UgEozmL2tB0fj9k[] = {
/* columns rows colors chars-per-pixel */
"32 32 4 1 ",
"  c #573726",
". c #B78C41",
"X c #986A20",
"o c #684415",
/* pixels */
" ...... Xoooooo ....... XooooooX",
" ...... Xoooooo ....... XooooooX",
" ...... Xoooooo ....... XooooooX",
" ...... Xoooooo ....... XooooooX",
" ...... Xoooooo ....... XooooooX",
" ...... Xoooooo ....... XooooooX",
" ...... Xoooooo ....... XooooooX",
" ...... Xoooooo ....... XooooooX",
" ...... Xoooooo ....... XooooooX",
" ...... Xoooooo ....... XooooooX",
" ...... Xoooooo ....... XooooooX",
" ...... Xoooooo ....... XooooooX",
" ...... Xoooooo ....... XooooooX",
" ...... Xoooooo ....... XooooooX",
" ...... Xoooooo ....... XooooooX",
" ...... Xoooooo ....... XooooooX",
" ...... Xoooooo ....... XooooooX",
" ...... Xoooooo ....... XooooooX",
" ...... Xoooooo ....... XooooooX",
" ...... Xoooooo ....... XooooooX",
" ...... Xoooooo ....... XooooooX",
" ...... Xoooooo ....... XooooooX",
" ...... Xoooooo ....... XooooooX",
" ...... Xoooooo ....... XooooooX",
" ...... Xoooooo ....... XooooooX",
" ...... Xoooooo ....... XooooooX",
" ...... Xoooooo ....... XooooooX",
" ...... Xoooooo ....... XooooooX",
" ...... Xoooooo ....... XooooooX",
" ...... Xoooooo ....... XooooooX",
" ...... Xoooooo ....... XooooooX",
" ...... Xoooooo ....... XooooooX"
};
